<?xml version="1.0" encoding="UTF-8" standalone="no"?>
<!-- Created with Inkscape (http://www.inkscape.org/) -->

<svg
   width="512"
   height="512"
   viewBox="0 0 512 512"
   version="1.1"
   id="svg1"
   sodipodi:docname="anillos.svg"
   inkscape:version="1.4 (86a8ad7, 2024-10-11)"
   xmlns:inkscape="http://www.inkscape.org/namespaces/inkscape"
   xmlns:sodipodi="http://sodipodi.sourceforge.net/DTD/sodipodi-0.dtd"
   xmlns="http://www.w3.org/2000/svg"
   xmlns:svg="http://www.w3.org/2000/svg">
  <sodipodi:namedview
     id="namedview1"
     pagecolor="#ffffff"
     bordercolor="#000000"
     borderopacity="0.25"
     inkscape:showpageshadow="2"
     inkscape:pageopacity="0.0"
     inkscape:pagecheckerboard="0"
     inkscape:deskcolor="#d1d1d1"
     inkscape:document-units="px"
     inkscape:zoom="1.5761719"
     inkscape:cx="230.30483"
     inkscape:cy="254.7311"
     inkscape:window-width="1920"
     inkscape:window-height="1009"
     inkscape:window-x="3192"
     inkscape:window-y="-1"
     inkscape:window-maximized="1"
     inkscape:current-layer="g12" />
  <defs
     id="defs1" />
  <g
     inkscape:label="Capa 1"
     inkscape:groupmode="layer"
     id="layer1">
    <g
       id="g12"
       transform="matrix(2.1640423,0,0,2.1640423,-1821.1614,-3249.4001)">
      <path
         id="path11"
         class="s4"
         d="m 994.15982,1576.9519 c -16.24,0 -31.84,6.64 -43.2,18.32 -34.16,-26.8 -85.6,-1.84 -85.36,41.92 -0.32,43.6 51.2,68.88 85.44,42 36.96,38.48 103.43998,11.92 103.35998,-42 0,-33.2 -27.04,-60.24 -60.23998,-60.24 z m -75.52,108.48 c -26.64,0 -48.24,-21.6 -48.24,-48.24 -0.08,-42.8 52.56,-64.24 82.32,-34.08 15.68,14.88 18.88,42 6.4,60.32 q -1.76,-2.4 -3.28,-5.04 c 7.68,-13.04 7.36,-30.88 -0.64,-43.44 -22.72,-36.56 -78.88,-21.12 -79.36,22.24 -0.32,35.04 40.96,55.52 68.64,34.16 q 1.6,2.24 3.28,4.32 c -8.32,6.32 -18.56,9.76 -29.12,9.76 z m 75.52,7.2 c -41.6,0.56 -69.12,-46.08 -48.56,-82.16 q 2.64,2.64 4.72,5.76 c -6.48,13.28 -6.24,30.16 0.56,43.04 23.52,44.88 91.03998,29.2 91.83998,-22.08 0.08,-43.28 -53.19998,-64.88 -83.35998,-33.92 q -2.24,-2.56 -4.72,-4.96 c 34.48,-35.12 95.03998,-10.4 94.95998,38.88 0,30.64 -24.88,55.44 -55.43998,55.44 z m -43.76,-55.44 c 0,-5.36 0.96,-10.64 2.88,-15.6 4.48,9.52 4.48,21.6 0,31.28 -1.84,-4.88 -2.88,-10.16 -2.88,-15.68 z m -31.76,38.08 c -20.96,0 -38,-17.12 -38,-38.08 -0.16,-31.44 36.8,-49.28 61.28,-30 -10.72,17.92 -10.56,42.48 0,60.08 -6.64,5.12 -14.8,8 -23.28,8 z m 43.68,-68.08 c 26.88,-28.64 75.67998,-9.36 75.59998,30 0.08,39.52 -48.95998,58.64 -75.59998,30.08 12.48,-17.28 12.24,-43.12 0,-60.08 z"
         style="fill:#d6d6d6;stroke-width:0.8" />
      <path
         id="path12"
         class="s5"
         d="m 959.19982,1542.5519 c -3.6,0 -6.96,1.44 -9.36,4.08 -8.64,-9.04 -23.04,-2.08 -22.96,10.4 0,9.92 9.92,16.08 18.64,21.52 1.76,0.8 3.52,3.12 5.6,1.84 9.12,-5.84 21.6,-12.24 21.6,-23.36 0,-8 -6.08,-14.48 -13.52,-14.48 z m -7.6,31.92 q -0.88,0.56 -1.76,1.04 c -7.76,-4.8 -18.16,-10.64 -18.16,-18.48 0,-9.44 11.28,-13.52 16,-5.2 0.88,1.6 3.36,1.6 4.24,0 4.8,-8.32 16,-4.24 16,5.2 0,7.28 -8.72,12.64 -16.32,17.44 z"
         style="fill:#ffb948;fill-opacity:1;stroke-width:0.799984;stroke-dasharray:none"
         inkscape:label="path12" />
    </g>
  </g>
</svg>
