<?xml version="1.0" encoding="UTF-8" standalone="no"?>
<!-- Created with Inkscape (http://www.inkscape.org/) -->

<svg
   width="512"
   height="512"
   viewBox="0 0 512 512"
   version="1.1"
   id="svg1"
   sodipodi:docname="aperitivo.svg"
   inkscape:version="1.4 (86a8ad7, 2024-10-11)"
   xmlns:inkscape="http://www.inkscape.org/namespaces/inkscape"
   xmlns:sodipodi="http://sodipodi.sourceforge.net/DTD/sodipodi-0.dtd"
   xmlns="http://www.w3.org/2000/svg"
   xmlns:svg="http://www.w3.org/2000/svg">
  <sodipodi:namedview
     id="namedview1"
     pagecolor="#ffffff"
     bordercolor="#000000"
     borderopacity="0.25"
     inkscape:showpageshadow="2"
     inkscape:pageopacity="0.0"
     inkscape:pagecheckerboard="0"
     inkscape:deskcolor="#d1d1d1"
     inkscape:document-units="px"
     inkscape:zoom="1.5761719"
     inkscape:cx="230.30483"
     inkscape:cy="254.7311"
     inkscape:window-width="1920"
     inkscape:window-height="1009"
     inkscape:window-x="3192"
     inkscape:window-y="-1"
     inkscape:window-maximized="1"
     inkscape:current-layer="layer1" />
  <defs
     id="defs1" />
  <g
     inkscape:label="Capa 1"
     inkscape:groupmode="layer"
     id="layer1">
    <g
       id="g67"
       transform="matrix(1.8566453,0,0,1.8566453,-3364.4974,-300.99357)">
      <g
         id="g61">
        <path
           id="path56"
           class="s4"
           d="m 1896.6,404.2 -23.5,-9 v -25 c 12.9,-1 23.6,-11.1 22.3,-24.8 0,0 -5.1,-82.2 -5.1,-82.2 -0.1,-1.6 -1.4,-2.8 -2.9,-2.8 h -34.6 c -1.6,0 -2.9,1.2 -3,2.8 l -5.1,82.2 c -1.2,13.7 9.4,23.8 22.4,24.8 v 25 l -23.5,9 c -3,1.2 -2.2,5.8 1.1,5.8 0,0 50.8,0 50.8,0 3.2,0 4.1,-4.6 1.1,-5.8 z m -45.9,-58.4 1.7,-26.8 h 24.8 c 1.7,0 3,-1.4 3,-3 0,-1.7 -1.3,-3 -3,-3 h -24.5 l 2.9,-46.6 h 28.9 l 5,79.4 c 0.9,17.9 -19.2,22.4 -31,15.5 -3.9,-2.3 -8.3,-6.9 -7.8,-15.5 z m 10.1,58.2 9.3,-3.6 9.2,3.6 z"
           style="fill:#d6d6d6" />
        <path
           id="path57"
           class="s4"
           d="m 1869.7,325.6 c -0.1,-3.9 -5.9,-3.9 -6,0 v 1 c 0.1,4 5.9,4 6,0 z"
           style="fill:#d6d6d6" />
        <path
           id="path58"
           class="s4"
           d="m 1874.8,349.9 v -1 c -0.1,-3.9 -5.9,-3.9 -6,0 v 1 c 0.1,4 5.9,4 6,0 z"
           style="fill:#d6d6d6" />
        <path
           id="path59"
           class="s4"
           d="m 1859.2,351.6 c -1.7,0 -3,1.3 -3,3 v 1 c 0,1.6 1.3,3 3,3 1.6,0 3,-1.4 3,-3 v -1 c 0,-1.7 -1.4,-3 -3,-3 z"
           style="fill:#d6d6d6" />
        <path
           id="path60"
           class="s4"
           d="m 1879,353.7 v 1 c 0.2,4 6,4 6,0 v -1 c 0,-3.9 -5.9,-3.9 -6,0 z"
           style="fill:#d6d6d6" />
        <path
           id="path61"
           class="s4"
           d="m 1879.7,339.5 c 1.7,0 3,-1.3 3,-3 v -0.9 c 0,-1.7 -1.3,-3 -3,-3 -1.7,0 -3,1.3 -3,3 v 0.9 c 0,1.7 1.3,3 3,3 z"
           style="fill:#d6d6d6" />
      </g>
      <g
         id="g66">
        <path
           id="path62"
           class="s4"
           d="m 2056.4,404.2 -23.5,-9 v -25 c 13,-1 23.6,-11.1 22.4,-24.8 0,0 -5.1,-82.2 -5.1,-82.2 -0.1,-1.6 -1.4,-2.8 -3,-2.8 h -34.6 c -1.5,0 -2.8,1.2 -2.9,2.8 l -5.1,82.2 c -1.2,13.7 9.4,23.8 22.3,24.8 v 25 l -23.5,9 c -3,1.2 -2.2,5.8 1.1,5.8 h 50.8 c 3.3,0 4.2,-4.6 1.1,-5.8 z m -45.9,-58.4 5,-79.4 h 28.9 l 2.9,46.6 h -24.5 c -1.7,0 -3,1.3 -3,3 0,1.6 1.3,3 3,3 h 24.8 l 1.7,26.8 c 1.5,25 -40.4,24.8 -38.8,0 z m 10.2,58.2 9.2,-3.6 9.3,3.6 z"
           style="fill:#d6d6d6" />
        <path
           id="path63"
           class="s4"
           d="m 2033.3,329.6 c 1.7,0 3,-1.3 3,-3 v -1 c 0,-1.6 -1.3,-3 -3,-3 -1.6,0 -3,1.4 -3,3 v 1 c 0,1.7 1.4,3 3,3 z"
           style="fill:#d6d6d6" />
        <path
           id="path64"
           class="s4"
           d="m 2033.6,339.9 v -1 c -0.1,-4 -5.9,-4 -6,0 v 1 c 0.1,3.9 5.9,3.9 6,0 z"
           style="fill:#d6d6d6" />
        <path
           id="path65"
           class="s4"
           d="m 2039.5,348.6 v 1 c 0.1,3.9 5.9,3.9 6,0 v -1 c -0.1,-3.9 -5.9,-3.9 -6,0 z"
           style="fill:#d6d6d6" />
        <path
           id="path66"
           class="s4"
           d="m 2035.7,333.3 c 0.1,4 5.9,4 6,0 v -0.9 c -0.1,-4 -5.9,-4 -6,0 z"
           style="fill:#d6d6d6" />
      </g>
      <path
         id="path67"
         class="s5"
         d="m 1983.6,289.7 c -20.3,-34.8 -15.8,-56.1 -16.8,-94.7 -0.1,-2.8 -2.3,-5 -5,-5 h -23.6 c -2.7,0 -4.9,2.2 -5,5 q 0,1.5 -0.1,3 c -0.1,6 -0.1,13.1 -0.1,19.2 0.2,24 -1,42.9 -12,63.7 -3.7,7.5 -11,19 -10.9,25.4 -0.1,11.1 0,52.9 0,64.7 v 26.1 c 0,2.7 1,5.2 3,7 5.8,5.6 25.2,5.6 36.9,5.9 11.7,-0.3 31.1,-0.3 36.9,-5.9 2,-1.8 3,-4.3 3,-7 v -90.8 c 0,-4.3 -2.7,-9.8 -6.3,-16.6 z m 0.3,36 V 368 h -67.8 v -42.3 z m -67.9,-6 v -13.4 c 0,-2.3 1.6,-6 3.7,-10.3 h 19.4 c 2.2,1.8 4.6,3.4 6.7,4.8 1.4,0.8 2.5,2.1 4.1,2.2 1.6,-0.1 2.7,-1.4 4.1,-2.2 2.1,-1.4 4.5,-3 6.7,-4.8 h 19.4 c 2.1,4.3 3.8,8 3.8,10.3 v 13.4 z m 8.2,-32.2 q 2.4,-4.5 4.6,-9.2 h 2.4 c -1,4 -0.2,8.3 2.2,11.7 h -10.5 q 0.6,-1.2 1.3,-2.5 z m 42.8,1.7 c 1.9,-3.3 2.5,-7.2 1.6,-10.9 h 2.4 c 1.8,4 3.9,7.9 5.9,11.7 h -10.5 q 0.3,-0.4 0.6,-0.8 z m -5.5,-12.2 c 5.6,8.6 -5.2,15.1 -11.6,19.3 -4.2,-2.8 -9.3,-5.9 -11.8,-10.1 -1.8,-2.7 -1.7,-6.5 0.2,-9.1 2.4,-3.5 7.1,-3 8.9,0.8 0.6,1 1.6,1.7 2.7,1.7 1.1,0 2.1,-0.7 2.7,-1.7 1.8,-3.8 6.5,-4.2 8.9,-0.9 z m -0.8,-81 q 0.2,5.6 0.2,11.2 c 0,0 -22,0 -22,0 q 0,-5.3 0.2,-11.2 z m -21.9,21.2 q 0,-2 0,-4 h 22.1 c 0,21.5 -0.3,39 7.5,59.1 h -3.1 c -4,-4.4 -11.1,-4.8 -15.4,-0.6 -4.3,-4.2 -11.5,-3.8 -15.4,0.6 h -3.2 c 7.3,-19.1 7.6,-34.8 7.5,-55.1 z m 43.8,182.6 c -7.1,5.7 -58.2,5.7 -65.5,0 -0.8,-0.8 -1.2,-1.6 -1.2,-2.7 V 374 h 67.9 v 23.1 q 0,1.6 -1.2,2.7 z"
         style="fill:#ffb948;fill-opacity:1" />
    </g>
  </g>
</svg>
