<?xml version="1.0" encoding="UTF-8" standalone="no"?>
<!-- Created with Inkscape (http://www.inkscape.org/) -->

<svg
   width="512"
   height="512"
   viewBox="0 0 512 512"
   version="1.1"
   id="svg1"
   sodipodi:docname="arco.svg"
   inkscape:version="1.4 (86a8ad7, 2024-10-11)"
   xmlns:inkscape="http://www.inkscape.org/namespaces/inkscape"
   xmlns:sodipodi="http://sodipodi.sourceforge.net/DTD/sodipodi-0.dtd"
   xmlns="http://www.w3.org/2000/svg"
   xmlns:svg="http://www.w3.org/2000/svg">
  <sodipodi:namedview
     id="namedview1"
     pagecolor="#ffffff"
     bordercolor="#000000"
     borderopacity="0.25"
     inkscape:showpageshadow="2"
     inkscape:pageopacity="0.0"
     inkscape:pagecheckerboard="0"
     inkscape:deskcolor="#d1d1d1"
     inkscape:document-units="px"
     inkscape:zoom="1.5761719"
     inkscape:cx="230.62205"
     inkscape:cy="254.7311"
     inkscape:window-width="1920"
     inkscape:window-height="1009"
     inkscape:window-x="3192"
     inkscape:window-y="-1"
     inkscape:window-maximized="1"
     inkscape:current-layer="layer1" />
  <defs
     id="defs1" />
  <g
     inkscape:label="Capa 1"
     inkscape:groupmode="layer"
     id="layer1">
    <g
       id="g51"
       transform="matrix(1.7582223,0,0,1.7582223,-3172.5335,-1431.8905)">
      <path
         id="path47"
         class="s5"
         d="m 2031,951.6 c -2.8,-29.9 -20,-54.3 -47.7,-65.4 -1,-0.4 -2.1,-0.3 -2.9,0.4 -3.6,2.6 -7.5,5.1 -11.3,7.4 -0.6,0.4 -1.1,1.1 -1.3,1.8 -5.4,20.3 15.9,38.3 35,29.4 -2.4,13.3 6.7,26.3 19.4,29 -21,29.8 -17.1,81.1 -16.5,118.7 0,1.7 1.3,3 3,3 0,0 19.7,-0.1 19.7,-0.1 1.7,0 3,-1.3 3,-3 V 960.6 c 0,-3 -0.1,-6 -0.4,-9 z m -58,-49.5 q 0,-1.9 0.4,-3.7 c 3,-1.9 6.2,-3.9 9.2,-6 10.4,4.5 19.5,11.2 26.5,19.6 -10.1,16.8 -36,9.7 -36.1,-9.9 z m 35.5,27.4 c 0,-4.6 1.6,-8.9 4.4,-12.4 6.2,9.1 10.1,19.7 11.6,31.5 -9.1,-1.6 -16,-9.5 -16,-19.1 z m 16.9,140.3 -13.8,0.1 c -0.7,-34.8 -3.6,-82.1 13.8,-109.7 0,0.2 0,109.4 0,109.6 z"
         style="fill:#ffb948;fill-opacity:1" />
      <path
         id="path48"
         class="s5"
         d="m 1932.7,898.4 c -0.1,-1.2 -1,-2 -2,-2.5 -4.4,-2.7 -8.8,-5.5 -12.4,-8.6 -0.8,-0.7 -2.1,-0.9 -3.1,-0.5 -26.5,11.4 -43.3,34.9 -46,64 -1.5,2.9 -0.2,116.2 -0.6,122 0,1.7 1.3,3 3,3 l 19.7,0.1 c 1.7,0 3,-1.3 3,-3 0.6,-37.5 4.5,-89 -16.5,-118.6 12.7,-2.8 21.8,-15.8 19.4,-29.1 17.9,8.4 38.6,-7.3 35.5,-26.8 z m -44.1,162.3 q -0.1,4.8 -0.2,9.2 l -13.8,-0.1 c 0,-0.5 0,-109.1 0,-109.6 15.9,24.9 14.8,68.2 14,100.5 z m -13.1,-112.1 c 1.5,-11.8 5.4,-22.4 11.6,-31.5 9.6,11.3 2.7,29.2 -11.6,31.5 z m 32.1,-27.1 c -6.9,0 -13.2,-3.7 -16.7,-9.5 6.7,-8 15,-14.4 25,-18.9 3.4,2.7 7.2,5.2 11,7.5 0.9,11.2 -8.1,20.9 -19.3,20.9 z"
         style="fill:#ffb948;fill-opacity:1" />
      <path
         id="path49"
         class="s4"
         d="m 1995.7,873.8 c -1.4,-0.6 -3.1,-0.1 -3.9,1.2 -2.2,3.7 -5.9,7.5 -11.4,11.5 -1.8,1.3 -1.4,4.4 0.7,5.2 28.2,11.4 44.3,36.5 44.3,68.9 v 112.2 c 0,1.7 1.4,3 3,3 l 14.7,0.2 c 0.8,0 1.6,-0.3 2.2,-0.9 0.5,-0.5 0.9,-1.3 0.9,-2.1 V 958.9 c 0,-38.4 -18.4,-69.4 -50.5,-85.1 z m 44.5,196.2 -8.8,-0.1 V 960.6 c 0,-33.1 -15.7,-59.2 -43.4,-72.4 3.1,-2.6 5.6,-5.2 7.4,-7.8 17.8,9.4 44.8,31.4 44.8,78.5 z"
         style="fill:#d6d6d6" />
      <path
         id="path50"
         class="s4"
         d="m 1918.3,887.3 c -4.5,-3.9 -6.6,-7.6 -6.6,-11.6 0.4,-2.3 -1.9,-4.4 -4.2,-3.4 -34.1,15.2 -53.7,46.7 -53.7,86.6 V 1073 c 0,1.6 1.4,3 3,3 0.1,0 14.8,-0.2 14.8,-0.2 1.6,0 3,-1.3 3,-3 V 960.6 c 0,-31.8 15.6,-56.6 42.9,-68.3 2,-0.8 2.5,-3.6 0.8,-5 z m -49.7,73.3 v 109.3 l -8.8,0.1 V 958.9 c 0,-35.9 16.9,-64.6 46.4,-79.3 q 1.1,4.7 4.9,9 c -27.1,13.3 -42.5,39.3 -42.5,72 z"
         style="fill:#d6d6d6" />
      <path
         id="path51"
         class="s5"
         d="m 1979.7,844 c -5.8,0 -11.2,2.5 -15,6.9 -11.3,-13 -31.5,-6.5 -35,10 -10.6,-6.7 -24.2,2.1 -24,14.8 0,11.8 11.6,18.9 21.8,25.3 2.1,1 4.3,3.7 6.7,2.2 4.8,-3.1 10,-6 14.5,-9.5 3.1,2.1 6.4,4.1 9.6,6.1 q 2.4,1.5 4.8,3 c 1,0.7 2.2,0.7 3.2,0 14.4,-9.1 34.1,-19.3 34.1,-36.5 0,-12.3 -9.3,-22.3 -20.7,-22.3 z m -45.1,51.9 q -1,0.6 -2,1.2 c -8.9,-5.6 -21,-12.4 -20.9,-21.4 0.2,-11.2 13.2,-15.4 18.7,-5.4 1.2,1.5 3.9,1.2 4.8,-0.5 5.5,-9.5 18.4,-4.8 18.3,5.9 0,8.4 -10,14.7 -18.9,20.2 z m 33.4,-1.2 q -1.7,1 -3.3,2.1 c -3.8,-2.4 -7.7,-4.8 -11.4,-7.3 3.7,-3.8 6.2,-8.4 6.2,-13.8 0.3,-12.5 -13,-21.3 -23.6,-15 4,-12.3 19.7,-14.7 26.2,-3.1 1,2 4.2,2 5.2,0 8.1,-14 27.1,-7.2 27.1,8.7 0,12.1 -14.1,20.7 -26.4,28.4 z"
         style="fill:#ffb948;fill-opacity:1" />
    </g>
  </g>
</svg>
