<?xml version="1.0" encoding="UTF-8" standalone="no"?>
<!-- Created with Inkscape (http://www.inkscape.org/) -->

<svg
   width="512"
   height="512"
   viewBox="0 0 512 512"
   version="1.1"
   id="svg1"
   sodipodi:docname="baile.svg"
   inkscape:version="1.4 (86a8ad7, 2024-10-11)"
   xmlns:inkscape="http://www.inkscape.org/namespaces/inkscape"
   xmlns:sodipodi="http://sodipodi.sourceforge.net/DTD/sodipodi-0.dtd"
   xmlns="http://www.w3.org/2000/svg"
   xmlns:svg="http://www.w3.org/2000/svg">
  <sodipodi:namedview
     id="namedview1"
     pagecolor="#ffffff"
     bordercolor="#000000"
     borderopacity="0.25"
     inkscape:showpageshadow="2"
     inkscape:pageopacity="0.0"
     inkscape:pagecheckerboard="0"
     inkscape:deskcolor="#d1d1d1"
     inkscape:document-units="px"
     inkscape:zoom="1.5761719"
     inkscape:cx="230.30483"
     inkscape:cy="254.7311"
     inkscape:window-width="1920"
     inkscape:window-height="1009"
     inkscape:window-x="3192"
     inkscape:window-y="-1"
     inkscape:window-maximized="1"
     inkscape:current-layer="layer1" />
  <defs
     id="defs1" />
  <g
     inkscape:label="Capa 1"
     inkscape:groupmode="layer"
     id="layer1">
    <g
       id="g39"
       transform="matrix(1.7986779,0,0,1.7986779,-877.18944,-3845.084)">
      <path
         id="path33"
         class="s5"
         d="m 711.5,2264.4 c -13,-12.6 -40.8,-23.9 -58.8,-24.1 -10.1,-0.2 -16.9,2.6 -19.1,7.9 -3,19.2 -3.8,49.8 -6.6,69.3 -0.9,7.3 -3.8,11.7 -7.6,11.6 -3,-0.2 -6.4,-3.5 -6.5,-8.6 l -0.1,-12.7 c 9.8,0.3 9.7,-13.8 -0.1,-13.4 l -0.1,-6.7 c 10.1,0.4 9.9,-14 -0.1,-13.4 v -6.7 c 10.2,0.5 10.1,-14.1 -0.2,-13.4 v -6.8 c 10.5,0.7 10.4,-14.1 -0.1,-13.4 l -0.1,-10.3 c 0.6,-40.6 -37.7,-63.4 -69.4,-36 l -24.4,10.3 c -2.9,1.3 -2,5.9 1.3,5.8 l 24.4,-0.4 q 0.7,0 1.3,-0.3 c 23.2,-11.8 37.3,-0.8 36.2,25.7 -0.7,34.5 -3.2,68.5 -2.1,103.3 0.3,24.9 16.4,47.8 40.7,51.7 27.6,4.5 52.4,-17 62.4,-54.6 5.3,-16.9 10,-31.5 29.8,-39.5 3.6,-1.3 6,-3.5 7.2,-6.4 2.2,-5.3 -0.7,-12 -8,-18.9 z m 2.5,16.7 c -1.6,3.8 -11.2,5.9 -26.4,2.4 -3.9,-0.8 -5.2,4.9 -1.4,5.9 q 6.2,1.3 11.4,1.7 c -15.6,11.9 -18.2,30 -24.4,47 -20,58.3 -84.4,50.8 -87.8,-6.2 -0.8,-22.8 0.1,-46.1 1,-68.6 0.4,-11.3 0.8,-22.9 1.1,-34.4 0.7,-33.9 -18.9,-43.6 -44.3,-31.5 0,0 -8.4,0.1 -8.4,0.1 l 10.7,-4.5 c 27.7,-25 61.2,-5.5 60.6,30.8 l 0.1,10.2 h -4.1 c -3.7,0 -6.7,3.1 -6.7,6.7 0,3.7 3,6.7 6.7,6.7 h 4.2 v 6.8 h -4.2 c -3.7,0 -6.7,3 -6.7,6.7 0,3.7 3,6.7 6.7,6.7 h 4.4 v 6.7 h -4.4 c -3.7,0 -6.7,3 -6.7,6.7 0,3.7 3,6.7 6.7,6.7 h 4.5 l 0.1,6.7 h -4.6 c -3.7,0 -6.7,3 -6.7,6.7 0,3.7 3,6.7 6.7,6.7 h 4.7 l 0.1,12.8 c 1.3,18.7 23.7,20.6 26.1,-2.3 2,-15.7 3.4,-38.1 4.9,-55.1 7.9,9.1 18,15.1 31.3,20.7 1.5,0.6 3.3,-0.1 3.9,-1.6 0.6,-1.6 -0.1,-3.3 -1.7,-3.9 -10.4,-4.3 -19.5,-9.8 -25.6,-15.5 -5.3,-5 -7.8,-9.6 -6.6,-12.4 1.1,-2.8 6.1,-4.3 13.3,-4.2 16.6,0.1 43,10.9 54.9,22.4 5.2,5 7.7,9.6 6.6,12.4 z m -99.9,-0.1 c 0,0.4 -0.3,0.7 -0.7,0.7 h -3.8 c 0,0 -7.5,0 -7.5,0 -0.4,0 -0.7,-0.3 -0.7,-0.7 0,-0.4 0.3,-0.7 0.7,-0.7 h 7.4 c 0.1,0 3.9,0 3.9,0 0.4,0 0.7,0.3 0.7,0.7 z m 0,-20.1 c 0,0.3 -0.3,0.7 -0.7,0.7 h -11.3 c -0.9,0 -0.9,-1.4 0,-1.4 h 7.3 c 0,0 4,0 4,0 0.4,0 0.7,0.3 0.7,0.7 z m 0,-20.2 c 0,0.4 -0.3,0.7 -0.7,0.7 h -4.1 c -0.1,0 -7.2,0 -7.2,0 -0.9,0 -0.9,-1.3 0,-1.4 h 11.3 c 0.4,0 0.7,0.4 0.7,0.7 z m 0,60.4 c 0,0.4 -0.3,0.7 -0.7,0.7 h -3.6 c 0,0 -7.7,0 -7.7,0 -0.4,0 -0.7,-0.3 -0.7,-0.7 0,-0.4 0.3,-0.7 0.7,-0.7 h 7.6 c 0,0 3.7,0 3.7,0 0.4,0 0.7,0.3 0.7,0.7 z"
         style="fill:#ffb948;fill-opacity:1" />
      <g
         id="g38">
        <path
           id="path34"
           class="s4"
           d="m 681,2177.7 c -2.3,0 -4.5,0.9 -6.3,2.5 -7,-6.3 -16.8,0.2 -16.7,9.6 0,8.1 7.2,13.2 13,17.2 3.3,2.6 4.1,2.6 7.5,0 5.8,-4 12.9,-9.1 12.9,-17.2 0,-6.7 -4.6,-12.1 -10.4,-12.1 z m -5.9,24.4 q -0.2,0.1 -0.4,0.2 c -5.1,-3.6 -10.7,-7.4 -10.7,-12.5 -0.1,-5.4 5.4,-8.7 8.1,-3.4 1,2.1 4.3,2.1 5.3,0 2.7,-5.2 8.1,-2 8,3.4 0,5 -5.2,8.7 -10.3,12.3 z"
           style="fill:#d6d6d6" />
        <path
           id="path35"
           class="s4"
           d="m 706.9,2240.7 c 0.8,2.3 3.4,1.9 5.4,1.9 7.1,-0.1 16,-0.2 20.4,-7 5.4,-7.9 0.5,-18.8 -8.9,-17.5 -2.7,-9.6 -14.6,-9.3 -19.5,-1.5 -4.9,7.7 -0.3,16.7 2.6,24.1 z m 2.4,-20.8 c 2.7,-4.4 9.4,-4.4 8.9,1.8 -0.4,2.4 2.4,4.2 4.4,3 5.2,-2.9 8.2,3.1 5.1,7.6 -2.7,4.2 -9.7,4.2 -16,4.3 -2.4,-5.9 -5.2,-12.5 -2.4,-16.7 z"
           style="fill:#d6d6d6" />
        <path
           id="path36"
           class="s4"
           d="m 642.5,2200.6 c -3,-2.5 -6.9,1.8 -3.9,4.5 7.2,6.4 9.5,29.7 7.5,47.7 -0.2,1.8 1.2,3.4 3,3.4 1.5,0 2.8,-1.2 3,-2.7 1.8,-16.3 0.7,-43.9 -9.6,-52.9 z"
           style="fill:#d6d6d6" />
        <path
           id="path37"
           class="s4"
           d="m 686.7,2220.4 c -1.4,-0.8 -3.2,-0.4 -4.1,1 -6.4,10.7 -11,22.4 -13.7,35 -0.7,3.9 5,5.1 5.9,1.2 2.5,-11.9 6.9,-23 13,-33 0.8,-1.5 0.4,-3.3 -1.1,-4.2 z"
           style="fill:#d6d6d6" />
        <path
           id="path38"
           class="s4"
           d="m 740.7,2253.1 c -13.2,-1 -32.5,5.6 -43.5,22.4 -0.9,1.4 -0.6,3.2 0.8,4.1 1.4,0.9 3.3,0.6 4.2,-0.8 9.7,-14.8 26.5,-20.6 38.1,-19.7 3.9,0.2 4.4,-5.6 0.4,-6 z"
           style="fill:#d6d6d6" />
      </g>
    </g>
  </g>
</svg>
