<?xml version="1.0" encoding="UTF-8" standalone="no"?>
<!-- Created with Inkscape (http://www.inkscape.org/) -->

<svg
   width="512"
   height="512"
   viewBox="0 0 512 512"
   version="1.1"
   id="svg1"
   sodipodi:docname="bus.svg"
   inkscape:version="1.4 (86a8ad7, 2024-10-11)"
   xmlns:inkscape="http://www.inkscape.org/namespaces/inkscape"
   xmlns:sodipodi="http://sodipodi.sourceforge.net/DTD/sodipodi-0.dtd"
   xmlns="http://www.w3.org/2000/svg"
   xmlns:svg="http://www.w3.org/2000/svg">
  <sodipodi:namedview
     id="namedview1"
     pagecolor="#ffffff"
     bordercolor="#000000"
     borderopacity="0.25"
     inkscape:showpageshadow="2"
     inkscape:pageopacity="0.0"
     inkscape:pagecheckerboard="0"
     inkscape:deskcolor="#d1d1d1"
     inkscape:document-units="px"
     inkscape:zoom="1.5761719"
     inkscape:cx="230.30483"
     inkscape:cy="254.7311"
     inkscape:window-width="1920"
     inkscape:window-height="1009"
     inkscape:window-x="3192"
     inkscape:window-y="-1"
     inkscape:window-maximized="1"
     inkscape:current-layer="layer1" />
  <defs
     id="defs1" />
  <g
     inkscape:label="Capa 1"
     inkscape:groupmode="layer"
     id="layer1">
    <g
       id="bus"
       transform="matrix(-1.616558,0,0,1.616558,1274.6603,-228.77356)">
      <path
         id="&lt;Compound Path&gt;"
         class="s1"
         d="m 596.4,382.9 c -12.8,0 -23,-10.3 -23,-23 0,-12.7 10.2,-23 23,-23 12.7,0 23,10.3 23,23 0,12.7 -10.3,23 -23,23 z m 0,-10.8 c -6.8,0 -12.2,-5.4 -12.2,-12.2 0,-6.7 5.4,-12.2 12.2,-12.2 6.7,0 12.2,5.5 12.2,12.2 0,6.8 -5.5,12.2 -12.2,12.2 z"
         style="fill:none;stroke:#d6d6d6;stroke-width:5;stroke-miterlimit:10" />
      <path
         id="path1"
         class="s2"
         d="m 694.9,382.9 c -12.7,0 -23,-10.3 -23,-23 0,-12.7 10.3,-23 23,-23 12.7,0 23,10.3 23,23 0,12.7 -10.3,23 -23,23 z m 0,-10.8 c -6.7,0 -12.2,-5.4 -12.2,-12.2 0,-6.7 5.5,-12.2 12.2,-12.2 6.8,0 12.2,5.5 12.2,12.2 0,6.8 -5.4,12.2 -12.2,12.2 z"
         style="fill:none;stroke:#d6d6d6;stroke-width:4;stroke-miterlimit:10" />
      <path
         id="&lt;Compound Path&gt; copy"
         class="s1"
         d="m 569.9,294.5 c -17.6,15.9 -34.7,22.5 -49.4,24.8 -0.1,-30 5,-60.5 5,-60.8 1.4,-7 4.5,-10.8 4.5,-10.8 1.8,-3.3 7.2,-6.1 10.8,-6.1 H 565 c 3.5,0 5.4,3.2 5.4,7.1 z M 632,272.6 c 0,3.9 -3.2,7.1 -7.1,7.1 h -32.3 c -3.9,0 -7.1,-3.2 -7.1,-7.1 v -28.8 c 0,-3.9 3.2,-7.1 7.1,-7.1 h 32.3 c 3.9,0 7.1,3.2 7.1,7.1 z m 54.2,0 c 0,3.8 -3.2,7 -7.1,7 h -32.3 c -3.9,0 -7.1,-3.2 -7.1,-7 v -28.9 c 0,-3.9 3.2,-7 7.1,-7 h 32.3 c 3.9,0 7.1,3.1 7.1,7 z m 54.2,0 c 0,3.9 -3.2,7 -7,7 H 701 c -3.9,0 -7.1,-3.1 -7.1,-7 v -28.9 c 0,-3.8 3.2,-7 7.1,-7 h 32.4 c 3.8,0 7,3.2 7,7 z"
         style="fill:none;stroke:#d6d6d6;stroke-width:5;stroke-miterlimit:10" />
      <path
         id="path2"
         class="s3"
         d="M 723.1,217 H 561.2 c 0,0 -39.9,-0.2 -48.4,39.7 0,0 -9.8,44.5 -5.9,80.7 2.7,23.8 19.7,26 43.7,26 h 17 q -0.2,-1.7 -0.2,-3.5 c 0,-16 13,-29 29,-29 16,0 28.9,13 28.9,29 q 0,1.8 -0.2,3.5 h 41.1 q -0.3,-1.7 -0.3,-3.5 c 0,-16 13,-29 29,-29 16,0 29,13 29,29 q 0,1.8 -0.2,3.5 h 0.8 c 24,0 29.6,-19.6 29.6,-43.6 v -59.2 c 0,-24 -7,-43.6 -31,-43.6 z"
         style="fill:none;stroke:#ffb948;stroke-width:5;stroke-miterlimit:10;stroke-opacity:1" />
    </g>
  </g>
</svg>
