<?xml version="1.0" encoding="UTF-8" standalone="no"?>
<!-- Created with Inkscape (http://www.inkscape.org/) -->

<svg
   width="512"
   height="512"
   viewBox="0 0 512 512"
   version="1.1"
   id="svg1"
   sodipodi:docname="comida.svg"
   inkscape:version="1.4 (86a8ad7, 2024-10-11)"
   xmlns:inkscape="http://www.inkscape.org/namespaces/inkscape"
   xmlns:sodipodi="http://sodipodi.sourceforge.net/DTD/sodipodi-0.dtd"
   xmlns="http://www.w3.org/2000/svg"
   xmlns:svg="http://www.w3.org/2000/svg">
  <sodipodi:namedview
     id="namedview1"
     pagecolor="#ffffff"
     bordercolor="#000000"
     borderopacity="0.25"
     inkscape:showpageshadow="2"
     inkscape:pageopacity="0.0"
     inkscape:pagecheckerboard="0"
     inkscape:deskcolor="#d1d1d1"
     inkscape:document-units="px"
     inkscape:zoom="1.5761719"
     inkscape:cx="230.62205"
     inkscape:cy="254.7311"
     inkscape:window-width="1920"
     inkscape:window-height="1009"
     inkscape:window-x="3192"
     inkscape:window-y="-1"
     inkscape:window-maximized="1"
     inkscape:current-layer="g18" />
  <defs
     id="defs1" />
  <g
     inkscape:label="Capa 1"
     inkscape:groupmode="layer"
     id="layer1">
    <g
       id="g18"
       transform="matrix(2.2214251,0,0,2.2214251,-1889.3478,-4073.9191)">
      <g
         id="g14"
         transform="matrix(0.8,0,0,0.8,201.28618,389.85967)">
        <path
           id="path13"
           class="s4"
           d="m 1047,1964.3 -1.5,-6.8 c -0.1,-0.8 -0.7,-1.5 -1.4,-2 -0.7,-0.4 -1.6,-0.5 -2.4,-0.2 l -12.5,4 c -9.2,-31.2 -12.9,-51 -13,-75.7 0,-1 -0.4,-1.9 -1.1,-2.4 -38.5,-31.9 -100.8,-21.9 -127.5,20.2 -0.6,0.8 -0.6,1.9 -0.5,2.7 0,5.2 -2.7,10 -7.1,12.8 -0.6,0.3 -1,0.8 -1.2,1.4 q -1.2,3 -2.1,6.2 -0.2,0.5 -0.2,1 l 1.4,53.2 c 29.9,85.4 154.3,75.1 169.1,-14.4 z m -86.4,67.5 c -34.2,0 -65,-21.6 -76.8,-53.7 l -1.3,-52.3 q 0.7,-2.2 1.6,-4.4 c 5.6,-4 9,-10.4 9,-17.4 24.8,-38.2 81.5,-47.4 117.1,-19 0.3,25.5 4.3,46.3 14.1,79 0.2,0.7 0.8,1.4 1.5,1.7 0.7,0.4 1.5,0.5 2.3,0.2 l 12.3,-3.9 0.6,3 c -7.2,38.7 -40.9,66.8 -80.4,66.8 z"
           style="fill:#d6d6d6" />
        <path
           id="path14"
           class="s4"
           d="m 960.6,1894.1 c -30.8,0 -55.8,25.1 -55.8,55.9 2.9,74.1 108.8,74 111.7,0 0,-30.8 -25.1,-55.9 -55.9,-55.9 z m 0,105.8 c -27.5,0 -49.8,-22.4 -49.8,-49.9 2.6,-66.1 97.1,-66.1 99.7,0 0,27.5 -22.4,49.9 -49.9,49.9 z"
           style="fill:#d6d6d6" />
      </g>
      <path
         id="path15"
         class="s5"
         d="m 1065.526,2010.0197 c -8.16,-25.68 -34.32,-108.32 -42.88,-135.28 -0.48,-1.6 -2.64,-2.24 -3.84,-1.12 -17.5198,17.2 -6.24,59.12 1.92,87.44 0.32,1.2 1.76,2 3.04,1.52 l 9.84,-3.12 c 2.24,10.48 9.68,45.52 12,56.56 0.96,4.48 4.96,7.6 9.84,7.6 6.8,0.16 12.32,-7.12 10.08,-13.6 z m -30.16,-56.08 q -0.4,0 -0.72,0.16 l -10,3.2 c -7.12,-25.12 -16,-58.56 -5.28,-77.12 l 28.4,89.68 c -1.6,0.48 -5.04,1.52 -6.64,2.08 l -3.44,-16.08 c -0.16,-1.04 -1.2,-1.92 -2.32,-1.92 z m 25.2,61.68 c -2,4.16 -8.96,4.48 -10.24,-0.56 0,0 -8.16,-38.4 -8.16,-38.4 l 7.04,-2.24 11.76,37.04 c 0.4,1.36 0.32,2.88 -0.4,4.16 z"
         style="fill:#ffb948;fill-opacity:1;stroke-width:0.8" />
      <g
         id="g17"
         transform="matrix(0.8,0,0,0.8,201.28618,389.85967)">
        <path
           id="path16"
           class="s5"
           d="m 890.1,1856.7 c -1.7,0 -3,1.4 -3,3 v 44.4 c 0,6.2 -3.8,11.5 -9.1,13.8 -9.6,4.4 -21.2,-3 -21.1,-13.8 v -44.4 c -0.1,-3.9 -5.9,-4 -6,0 v 44.4 c 0,7.9 4.4,14.8 10.8,18.4 -0.6,25.2 -2.1,83.3 -2.7,109 -0.4,7 6,13.2 13,13.1 6.9,0.1 13.3,-6.1 13,-13.1 l -2.7,-109 c 6.4,-3.6 10.8,-10.5 10.8,-18.4 v -44.4 c 0,-1.6 -1.4,-3 -3,-3 z m -13.8,68.1 1,37.1 h -10.6 l 0.9,-37.1 c 2.9,0.6 5.9,0.6 8.7,0 z m 0.8,111.6 c -4.2,4.5 -12.3,1.4 -12.1,-4.8 0,0 1.6,-63.7 1.6,-63.7 h 10.8 l 1.6,63.7 c 0,1.8 -0.6,3.5 -1.9,4.8 z"
           style="fill:#ffb948;fill-opacity:1" />
        <path
           id="path17"
           class="s5"
           d="m 872,1912.2 c 1.6,0 3,-1.3 3,-3 v -50.8 c 0,-1.6 -1.4,-3 -3,-3 -1.7,0 -3,1.4 -3,3 v 50.8 c 0,1.7 1.3,3 3,3 z"
           style="fill:#ffb948;fill-opacity:1" />
      </g>
    </g>
  </g>
</svg>
