<?xml version="1.0" encoding="UTF-8" standalone="no"?>
<!-- Created with Inkscape (http://www.inkscape.org/) -->

<svg
   width="512"
   height="512"
   viewBox="0 0 512 512"
   version="1.1"
   id="svg1"
   sodipodi:docname="musica.svg"
   inkscape:version="1.4 (86a8ad7, 2024-10-11)"
   xmlns:inkscape="http://www.inkscape.org/namespaces/inkscape"
   xmlns:sodipodi="http://sodipodi.sourceforge.net/DTD/sodipodi-0.dtd"
   xmlns="http://www.w3.org/2000/svg"
   xmlns:svg="http://www.w3.org/2000/svg">
  <sodipodi:namedview
     id="namedview1"
     pagecolor="#ffffff"
     bordercolor="#000000"
     borderopacity="0.25"
     inkscape:showpageshadow="2"
     inkscape:pageopacity="0.0"
     inkscape:pagecheckerboard="0"
     inkscape:deskcolor="#d1d1d1"
     inkscape:document-units="px"
     inkscape:zoom="1.5761719"
     inkscape:cx="230.30483"
     inkscape:cy="254.7311"
     inkscape:window-width="1920"
     inkscape:window-height="1009"
     inkscape:window-x="3192"
     inkscape:window-y="-1"
     inkscape:window-maximized="1"
     inkscape:current-layer="layer1" />
  <defs
     id="defs1" />
  <g
     inkscape:label="Capa 1"
     inkscape:groupmode="layer"
     id="layer1">
    <g
       id="g43"
       transform="matrix(1.7296922,0,0,1.7296922,-1404.5131,-262.94455)">
      <path
         id="path39"
         class="s4"
         d="m 1027.5,211.6 c -1.3,-13.1 -17,-19.1 -25.4,-8.9 -10.7,-8.3 -24.6,1.2 -23.1,14.1 1.2,10.6 12.2,15.9 21.9,20.6 5.3,2.7 4.9,2.8 9.5,-1 8.6,-6.6 18.2,-14.1 17.1,-24.8 z m -20.8,20.1 q -0.7,0.6 -1.4,1.2 c -8.4,-4.1 -19.5,-9 -20.3,-16.8 -1.1,-8.9 9.4,-14.6 15.1,-6.8 1.3,1.9 4.4,1.6 5.2,-0.5 3.8,-8.7 15.3,-5.8 16.3,3.5 0.7,7.3 -7.6,13.7 -14.9,19.4 z"
         style="fill:#d6d6d6" />
      <path
         id="path40"
         class="s4"
         d="m 1075.2,275.5 c -4.9,-8.2 -16.4,-10.5 -23.9,-4.7 -8.7,-13.4 -28.5,-8.1 -31.3,7.7 -2.7,14 11.5,25 21.7,34.6 2.3,2 5,-0.5 7.5,-1.1 12.2,-4.8 26.1,-10.2 28.5,-22.7 0.9,-4.9 0,-9.7 -2.5,-13.8 z m -3.4,12.7 c -1.8,10 -16.4,14.9 -27.4,19.2 -8.6,-8 -20.5,-17.8 -18.5,-27.8 2.2,-12 17.4,-14.6 21.6,-2.8 0.7,2.1 3.7,2.7 5.1,0.9 8.4,-9.6 21.5,-1.2 19.2,10.5 z"
         style="fill:#d6d6d6" />
      <path
         id="path41"
         class="s4"
         d="m 1054.4,353.6 c -2.1,-11.8 -16.5,-16.5 -23.4,-6.7 -10,-6.5 -21.6,3.2 -19.2,14.9 2.2,10.9 15.6,15.6 25.1,19 2,0 3.1,-2 4.5,-3.2 6.6,-6.3 14.8,-14.2 13,-24 z m -17.2,19.7 q -0.4,0.5 -0.9,1 c -7.9,-3.3 -17.4,-6.8 -18.6,-13.6 -1.6,-8 6.6,-13.5 11.9,-7.1 1.4,1.9 4.6,1.3 5.2,-1 2.6,-7.9 12.2,-5.8 13.7,2.2 1.2,6.5 -5.1,12.6 -11.3,18.5 z"
         style="fill:#d6d6d6" />
      <path
         id="path42"
         class="s4"
         d="m 884.9,259.2 c -2.1,-11.8 -16.5,-16.6 -23.4,-6.8 -10.5,-6.6 -21.6,3.5 -19.2,14.9 2.2,11 15.6,15.6 25.1,19 2,0 3.1,-2 4.5,-3.1 6.6,-6.4 14.8,-14.3 13,-24 z m -17.2,19.6 q -0.5,0.5 -1,1 c -7.8,-3.2 -17.3,-6.8 -18.5,-13.6 -1.6,-7.5 6.3,-13.7 11.9,-7.1 1.4,1.9 4.6,1.3 5.2,-1 2.6,-7.9 12.2,-5.8 13.7,2.2 1.2,6.5 -5.1,12.6 -11.3,18.5 z"
         style="fill:#d6d6d6" />
      <path
         id="path43"
         class="s5"
         d="m 993.1,258.2 -84.4,-36.6 c -1.9,-0.9 -4.3,0.7 -4.2,2.8 0,22.8 0,74.5 0,97.7 -5.5,-5.6 -13.6,-7.9 -22.2,-6.5 -21.5,2.8 -37.2,30.3 -19.9,45.8 17.4,14.5 46.5,-1.5 48,-22 q 0.1,-0.4 0.1,-0.8 v -71.2 l 78.4,33.9 v 56.3 c -23.6,-22.9 -67.3,15.4 -42.1,39.3 17,14.1 45,-0.6 47.8,-20.5 0.8,-25.9 0,-90.3 0.3,-115.5 0,-1.2 -0.7,-2.3 -1.8,-2.7 z m -26.4,137.9 c -10.8,2 -21.3,-4.4 -21.3,-15.6 -0.4,-16.6 23.8,-31.4 38.2,-19.7 13.2,12.3 -0.3,33.1 -16.9,35.3 z m -84.4,-35.5 c -10.8,2 -21.3,-4.4 -21.3,-15.6 -0.4,-16.6 23.8,-31.4 38.2,-19.7 13.2,12.3 -0.3,33.1 -16.9,35.3 z m 28.2,-99.8 v -31.9 l 78.4,34 v 31.9 z"
         style="fill:#ffb948;fill-opacity:1" />
    </g>
  </g>
</svg>
