<?xml version="1.0" encoding="UTF-8" standalone="no"?>
<!-- Created with Inkscape (http://www.inkscape.org/) -->

<svg
   width="512"
   height="512"
   viewBox="0 0 512 512"
   version="1.1"
   id="svg1"
   sodipodi:docname="pajarillos.svg"
   inkscape:version="1.4 (86a8ad7, 2024-10-11)"
   xmlns:inkscape="http://www.inkscape.org/namespaces/inkscape"
   xmlns:sodipodi="http://sodipodi.sourceforge.net/DTD/sodipodi-0.dtd"
   xmlns="http://www.w3.org/2000/svg"
   xmlns:svg="http://www.w3.org/2000/svg">
  <sodipodi:namedview
     id="namedview1"
     pagecolor="#ffffff"
     bordercolor="#000000"
     borderopacity="0.25"
     inkscape:showpageshadow="2"
     inkscape:pageopacity="0.0"
     inkscape:pagecheckerboard="0"
     inkscape:deskcolor="#d1d1d1"
     inkscape:document-units="px"
     inkscape:zoom="1.5761719"
     inkscape:cx="230.30483"
     inkscape:cy="254.7311"
     inkscape:window-width="1920"
     inkscape:window-height="1009"
     inkscape:window-x="3192"
     inkscape:window-y="-1"
     inkscape:window-maximized="1"
     inkscape:current-layer="layer1" />
  <defs
     id="defs1" />
  <g
     inkscape:label="Capa 1"
     inkscape:groupmode="layer"
     id="layer1">
    <g
       id="g88"
       style="display:inline"
       transform="matrix(1.4861926,0,0,1.4861926,-3622.9978,-1651.53)">
      <path
         id="path82"
         class="s4"
         d="m 2629.3,1177.6 c -7.5,0 -14.5,3.7 -19.3,10.2 -16.2,-21.3 -45.5,-6.5 -45.2,19.9 0,23.5 24.9,37.4 43.5,50.3 1,0.7 2.4,0.7 3.4,0 18.6,-12.9 43.5,-26.8 43.5,-50.3 0,-16.6 -11.6,-30.1 -25.9,-30.1 z m -14.7,71.2 q -2.3,1.5 -4.6,3.1 c -16.8,-11.5 -39.2,-24.8 -39.2,-44.2 -0.1,-23 25.3,-33.8 36.5,-12.9 1.1,2.1 4.3,2.1 5.4,0 11.2,-20.9 36.6,-10.1 36.5,12.9 0,17.7 -18.4,30.1 -34.6,41.1 z"
         style="fill:#d6d6d6" />
      <path
         id="path83"
         class="s5"
         d="m 2606.1,1284.6 c 1.7,-1.8 0.3,-5 -2.2,-5 l -19.4,-0.6 c -27.1,-49 -67.3,-35.2 -85.7,10.3 -0.3,0.8 -0.3,1.7 0.1,2.4 0.4,0.8 1.1,1.4 1.9,1.6 l 54.9,15.4 c -7.9,22.9 -36.6,33.4 -57.5,20.8 -1,-0.6 -2.3,-0.6 -3.3,0.1 -0.9,0.7 -1.4,1.9 -1.2,3.1 2.5,11.9 11,31.1 40.1,34.5 l -0.5,5.8 -11,9.1 c -3,2.6 0.8,7.1 3.9,4.6 l 9.6,-8 8,9.6 c 0.5,0.7 1.4,1.1 2.3,1.1 2.4,0.1 3.9,-3.1 2.3,-4.9 l -9.2,-11 0.6,-5.8 c 7.1,0.3 14.4,-0.3 21.4,-2 l 1.8,4.6 -5.2,11.8 c -1.6,3.6 3.9,6 5.4,2.5 l 4.6,-10.2 10.2,4.5 c 3.5,1.6 5.9,-3.9 2.4,-5.5 l -11.8,-5.2 -1.6,-4.3 c 26.8,-9.4 32.6,-39.1 25.7,-64.1 z m -21.3,15.2 -6.5,-14.9 c 2.9,0.1 16,0.5 19.1,0.6 z m -32.9,60.8 c 0,-21.6 16.8,-39.2 37.4,-39.2 -0.4,23 -14.7,37.7 -37.4,39.9 q 0,-0.4 0,-0.7 z m 36,-55.2 q 1,5.1 1.3,10 c -24.3,0 -44,21.2 -43.3,46.3 q -2.8,0.1 -5.6,0 c 0.1,-1.5 0.6,-3.3 0.3,-4.7 -0.6,-3.4 -5.6,-3.2 -5.9,0.2 l -0.4,4.1 c -20,-2.4 -29,-13 -32.9,-23.6 24.4,10 53.9,-3.9 61,-30.2 0.5,-1.6 -0.5,-3.2 -2.1,-3.7 l -54.6,-15.4 c 18,-39.7 49,-47.5 71.8,-9.5 l -3.8,-0.1 c -2.1,-0.2 -3.7,2.2 -2.8,4.2 l 10.3,23.5 c 0.8,2 3.6,2.4 5,0.8 z"
         style="fill:#ffb948;fill-opacity:1" />
      <path
         id="path84"
         class="s4"
         d="m 2556.4,1268.8 c -4.7,0 -8.5,3.9 -8.5,8.6 0.4,11.3 16.6,11.3 17,0 0,-4.7 -3.8,-8.6 -8.5,-8.6 z m 0,11.1 c -3.3,-0.1 -3.3,-5 0,-5.1 3.3,0.1 3.3,5 0,5.1 z"
         style="fill:#d6d6d6" />
      <path
         id="path85"
         class="s4"
         d="m 2560.3,1303.8 -82.4,-23.2 c -1.5,-0.5 -3.3,0.5 -3.7,2.1 -10.9,39.1 31.1,72.2 66.5,52.4 10.7,-6 18.4,-15.8 21.7,-27.6 0.5,-1.6 -0.5,-3.2 -2.1,-3.7 z m -22.5,26 c -29.4,16.8 -65.3,-9.7 -58.5,-42.6 l 76.4,21.5 c -3.2,9 -9.5,16.4 -17.9,21.1 z"
         style="fill:#d6d6d6" />
      <path
         id="path86"
         class="s5"
         d="m 2725.1,1329.6 c -1,-0.7 -2.3,-0.7 -3.3,-0.1 -21,12.6 -49.6,2.1 -57.5,-20.8 l 54.9,-15.4 c 0.8,-0.2 1.5,-0.8 1.9,-1.6 0.4,-0.7 0.4,-1.6 0.1,-2.4 -18.4,-45.5 -58.6,-59.3 -85.7,-10.3 l -19.4,0.6 c -2.5,0 -3.9,3.2 -2.2,5 l 13.4,15.2 c -6.9,25 -1.1,54.7 25.7,64.1 l -1.6,4.3 -11.8,5.2 c -3.5,1.6 -1.1,7.1 2.4,5.5 l 10.2,-4.5 4.6,10.2 c 1.7,3.6 7,1.2 5.5,-2.5 l -5.3,-11.8 1.8,-4.6 c 6.9,1.7 14.3,2.3 21.4,2 l 0.6,5.8 -9.2,11 c -1.6,1.8 -0.1,5 2.3,4.9 0.9,0 1.8,-0.4 2.3,-1.1 l 8,-9.6 9.6,8 c 3.1,2.5 6.9,-2 3.9,-4.6 l -11,-9.1 -0.5,-5.8 c 29.1,-3.4 37.6,-22.6 40.1,-34.5 0.2,-1.2 -0.3,-2.4 -1.2,-3.1 z m -87.7,-44.6 c 0,0 4.3,-0.1 4.3,-0.1 l -6.5,14.8 -12.6,-14.3 z m 30.7,76.3 c -22.7,-2.2 -37,-16.9 -37.4,-39.9 20.9,0 37.9,18.1 37.4,39.9 z m 17.6,0 -0.3,-4.1 c -0.3,-3.4 -5.4,-3.6 -6,-0.3 -0.2,1.5 0.2,3.3 0.4,4.8 q -2.9,0.1 -5.7,0 c 0.7,-25.2 -19,-46.3 -43.3,-46.3 q 0.3,-4.9 1.4,-10.1 l 1.7,2 c 1.3,1.6 4.2,1.2 5,-0.8 l 10.2,-23.6 c 0.9,-1.9 -0.7,-4.3 -2.8,-4.2 l -3.8,0.2 c 22.8,-38 53.9,-30.2 71.9,9.5 l -54.7,15.4 c -0.7,0.2 -1.4,0.8 -1.8,1.4 -0.4,0.7 -0.5,1.6 -0.3,2.3 7.2,26 36.1,40.3 61.1,30.2 -4,10.6 -13,21.2 -33,23.6 z"
         style="fill:#ffb948;fill-opacity:1" />
      <path
         id="path87"
         class="s4"
         d="m 2663.6,1268.8 c -4.7,0 -8.5,3.9 -8.5,8.6 0.4,11.3 16.6,11.3 17,0 0,-4.7 -3.8,-8.6 -8.5,-8.6 z m 0,11.1 c -3.3,-0.1 -3.3,-5 0,-5.1 3.3,0.1 3.3,5 0,5.1 z"
         style="fill:#d6d6d6" />
      <path
         id="path88"
         class="s4"
         d="m 2745.8,1282.7 c -0.5,-1.6 -2.1,-2.5 -3.7,-2.1 l -82.4,23.2 c -0.8,0.2 -1.4,0.7 -1.8,1.4 -0.4,0.7 -0.5,1.6 -0.3,2.3 5.7,20.2 24.1,33.4 44.1,33.4 29.9,0.4 52.6,-29.5 44.1,-58.2 z m -9.4,31.9 c -16.4,29.6 -60.8,25.8 -72.1,-5.9 l 76.4,-21.5 c 1.9,9.4 0.4,19 -4.3,27.4 z"
         style="fill:#d6d6d6" />
    </g>
  </g>
</svg>
