<?xml version="1.0" encoding="UTF-8" standalone="no"?>
<!-- Created with Inkscape (http://www.inkscape.org/) -->

<svg
   width="512"
   height="512"
   viewBox="0 0 512 512"
   version="1.1"
   id="svg1"
   sodipodi:docname="tarta_trozo.svg"
   inkscape:version="1.4 (86a8ad7, 2024-10-11)"
   xmlns:inkscape="http://www.inkscape.org/namespaces/inkscape"
   xmlns:sodipodi="http://sodipodi.sourceforge.net/DTD/sodipodi-0.dtd"
   xmlns="http://www.w3.org/2000/svg"
   xmlns:svg="http://www.w3.org/2000/svg">
  <sodipodi:namedview
     id="namedview1"
     pagecolor="#ffffff"
     bordercolor="#000000"
     borderopacity="0.25"
     inkscape:showpageshadow="2"
     inkscape:pageopacity="0.0"
     inkscape:pagecheckerboard="0"
     inkscape:deskcolor="#d1d1d1"
     inkscape:document-units="px"
     inkscape:zoom="1.5761719"
     inkscape:cx="230.30483"
     inkscape:cy="254.7311"
     inkscape:window-width="1920"
     inkscape:window-height="1009"
     inkscape:window-x="3192"
     inkscape:window-y="-1"
     inkscape:window-maximized="1"
     inkscape:current-layer="layer1" />
  <defs
     id="defs1" />
  <g
     inkscape:label="Capa 1"
     inkscape:groupmode="layer"
     id="layer1">
    <g
       id="&lt;Group&gt;"
       transform="matrix(1.7883117,0,0,1.7883117,-3821.3817,-1357.0553)">
      <path
         id="path3"
         class="s4"
         d="m 2378.3,935 c -23.6,-2.3 -17.7,15.2 -46.3,7.8 -8.7,-2.1 -15.2,-0.9 -21.5,0.3 -7.9,1.5 -16.1,3 -30.2,-1.6 -23.2,-6.7 -30.3,13.1 -59.7,2 -24.7,-9 -30,0.1 -50.7,-0.9 -1.6,-0.1 -3.2,1.3 -3.2,3 v 30.8 c 0,1.7 1.4,3.1 3,3 7.2,0 12,-0.9 16.3,-1.7 7.8,-1.5 14,-2.6 30.7,2.1 3.5,1.1 7,1.5 10.3,1.5 16.7,0.1 31.2,-10.6 48,-5.9 24.2,6.8 30.5,5.3 38.4,3.3 3.6,-0.9 7.4,-1.8 13.8,-2 3.3,-0.1 6.8,0.3 10.4,0.8 10.2,1.4 22.9,3 41.6,-6 1,-0.5 1.7,-1.6 1.7,-2.7 V 938 c 0,-1.5 -1.2,-2.8 -2.6,-3 z m -3.4,31.9 c -21.7,9.8 -30.8,4 -47.8,3.8 -23.4,1.2 -17.2,8.2 -50.5,-1 -11.3,-3.2 -21.3,-0.5 -31,2.2 -25.4,8.1 -28.3,-1.2 -48.8,-1.5 -9.3,0.1 -14.5,2.6 -24.1,2.9 v -24.5 c 6.2,0.1 11,-0.8 15.7,-1.8 28.4,-7.1 36.8,14.4 69.3,1.9 7.2,-2.4 12.9,-4.3 20.8,-1.7 15.5,5.1 24.8,3.3 33.1,1.8 6.2,-1.2 11.5,-2.2 18.9,-0.3 30.1,7.3 27.8,-8.3 44.4,-8 z"
         style="fill:#d6d6d6" />
      <path
         id="path4"
         class="s5"
         d="m 2394,896.1 c 0,-0.6 -0.3,-1.1 -0.6,-1.6 -21.1,-27.7 -27.7,-32.4 -42.7,-45.1 -4.4,-3.1 -9.3,-6.2 -16.6,-7.3 -1.1,-0.2 -2.3,0.3 -2.9,1.3 -0.7,0.9 -0.7,2.2 -0.1,3.2 8.7,15.5 -11.7,25.5 -25.4,33.6 -10.4,-6.1 -24.4,-13.4 -27,-22.7 -0.3,-0.8 -0.8,-1.5 -1.5,-1.9 -0.7,-0.3 -1.6,-0.4 -2.4,-0.1 -39.7,13.3 -70.6,24.5 -106.9,38.7 -1.9,0.6 -2.5,3.2 -1.2,4.7 0,5.3 0,96.7 0,105.1 0,1.6 1.5,3.1 3.1,3 l 221.2,-4.6 c 1.6,0 2.9,-1.4 2.9,-3 0,-0.2 0.2,-103.1 0.1,-103.3 z m -19.1,100.4 -202.2,4.5 v -84.9 c 64.8,8.6 169.3,6.1 202,-1 0,0.1 0.2,0.4 0.2,1.1 z M 2274,862.1 c 5,10.7 19.2,17.7 30.1,24.2 1,0.6 2.2,0.6 3.1,0 14.7,-8.7 35.6,-18.7 31.5,-36.8 3.2,1.3 5.8,3 8.5,4.8 14,11.9 20.3,16.5 38.9,40.5 -33.5,8.6 -136.2,7.7 -206.3,1.3 31.3,-12.1 59.5,-22.3 94.2,-34 z m 113.9,134.4 -7,0.2 v -80.4 c 0,-3.2 -1.4,-5 -2.5,-5.8 -1.9,-1.5 -4.5,-1.8 -7.9,-1 -27.2,6.7 -132,9.4 -197.8,0.6 v -8.7 c 65.8,6.7 180.1,8.8 215.3,-0.9 z"
         style="fill:#ffb948;fill-opacity:1" />
      <path
         id="path5"
         class="s4"
         d="m 2319.7,834.1 c -4.3,0 -8.3,1.4 -11.6,3.9 -0.6,-10.9 7.1,-34.5 17.4,-35 1.6,0.2 3.1,-1 3.3,-2.7 0.1,-1.6 -1.1,-3.1 -2.7,-3.3 -15.4,-0.5 -24.2,26.5 -24,40.2 -12.7,-8.4 -30.1,1.4 -29.9,16.8 0,13.7 14.6,22.2 27.4,29.6 6.9,4 5.2,4.1 12.1,0 12.9,-7.4 27.5,-15.9 27.5,-29.6 0,-11 -8.8,-19.9 -19.5,-19.9 z m -11,44.3 q -1.5,0.9 -3,1.8 c -11.5,-6.7 -27.7,-15.1 -27.5,-26.2 0,-13.8 17.7,-19.1 24.9,-7.4 1.1,1.9 4.1,1.9 5.1,0 7.2,-11.7 25,-6.3 25,7.4 0,10.2 -13,17.8 -24.5,24.4 z"
         style="fill:#d6d6d6" />
    </g>
  </g>
</svg>
