<?xml version="1.0" encoding="UTF-8" standalone="no"?>
<!-- Created with Inkscape (http://www.inkscape.org/) -->

<svg
   width="512"
   height="512"
   viewBox="0 0 512 512"
   version="1.1"
   id="svg1"
   sodipodi:docname="tarta.svg"
   inkscape:version="1.4 (86a8ad7, 2024-10-11)"
   xmlns:inkscape="http://www.inkscape.org/namespaces/inkscape"
   xmlns:sodipodi="http://sodipodi.sourceforge.net/DTD/sodipodi-0.dtd"
   xmlns="http://www.w3.org/2000/svg"
   xmlns:svg="http://www.w3.org/2000/svg">
  <sodipodi:namedview
     id="namedview1"
     pagecolor="#ffffff"
     bordercolor="#000000"
     borderopacity="0.25"
     inkscape:showpageshadow="2"
     inkscape:pageopacity="0.0"
     inkscape:pagecheckerboard="0"
     inkscape:deskcolor="#d1d1d1"
     inkscape:document-units="px"
     inkscape:zoom="1"
     inkscape:cx="372.5"
     inkscape:cy="172.5"
     inkscape:window-width="1920"
     inkscape:window-height="1009"
     inkscape:window-x="3192"
     inkscape:window-y="-1"
     inkscape:window-maximized="1"
     inkscape:current-layer="layer1" />
  <defs
     id="defs1" />
  <g
     inkscape:label="Capa 1"
     inkscape:groupmode="layer"
     id="layer1">
    <g
       id="g10"
       transform="matrix(1.6626752,0,0,1.6626752,-791.48539,-2456.2084)">
      <path
         id="path6"
         class="s4"
         d="m 730.1,1683.9 c -1.6,-0.5 -3.2,0.5 -3.7,2 -3.2,11.1 -18.2,13.1 -24.1,3.2 -1.1,-1.9 -4.1,-1.9 -5.1,0 -5,8.5 -17.8,8.5 -22.8,0 -1.1,-1.9 -4.1,-1.9 -5.1,0 -5,8.5 -17.8,8.5 -22.8,0 -1.1,-1.9 -4.1,-1.9 -5.1,0 -5,8.5 -17.8,8.5 -22.8,0 -1.1,-1.9 -4.1,-1.9 -5.1,0 -5,8.5 -17.8,8.5 -22.8,0 -1.1,-1.9 -4.1,-1.9 -5.1,0 -5,8.5 -17.8,8.5 -22.8,0 -1.1,-1.9 -4.1,-1.9 -5.1,0 -5.8,9.8 -20.9,7.9 -24.1,-3 -0.5,-1.6 -2.2,-2.5 -3.8,-2 -1.6,0.4 -2.5,2.1 -2,3.7 4.2,14 22.4,18.4 32.4,7.7 7.3,7.9 20.6,7.9 27.9,0 7.3,7.9 20.7,8 27.9,0.1 7.2,7.9 20.7,7.8 27.9,-0.1 7.3,7.9 20.6,7.9 27.9,0 7.3,7.9 20.6,7.9 27.9,0 10.1,10.7 28.4,6.3 32.5,-7.9 0.4,-1.6 -0.5,-3.2 -2.1,-3.7 z"
         style="fill:#d6d6d6" />
      <path
         id="path7"
         class="s4"
         d="m 701.1,1624.4 c -1.4,-0.9 -3.3,-0.4 -4.1,1 -5,8.5 -17.8,8.5 -22.7,0 -1.1,-1.9 -4.1,-1.9 -5.1,0 -5,8.5 -17.8,8.5 -22.7,0 -0.6,-0.9 -1.6,-1.5 -2.6,-1.5 -1.1,0 -2,0.6 -2.6,1.5 -4.9,8.5 -17.7,8.5 -22.7,0 -1,-1.9 -4,-1.9 -5.1,0 -4.9,8.5 -17.8,8.5 -22.7,0 -0.5,-0.9 -1.5,-1.5 -2.6,-1.5 -1,0 -2,0.6 -2.5,1.5 -5,8.5 -17.8,8.5 -22.7,0 -0.9,-1.4 -2.7,-1.9 -4.1,-1 -1.5,0.8 -1.9,2.7 -1.1,4.1 6.4,10.8 21.9,12.5 30.4,3.3 7.3,7.9 20.6,7.9 27.9,0 7.2,7.9 20.5,7.9 27.8,0 7.3,7.9 20.5,7.9 27.8,0 8.5,9.2 24.1,7.5 30.4,-3.3 0.9,-1.4 0.4,-3.3 -1,-4.1 z"
         style="fill:#d6d6d6" />
      <path
         id="path8"
         class="s4"
         d="m 673.3,1572.4 c -1.4,-0.8 -3.3,-0.4 -4.1,1.1 -5,8.5 -17.8,8.5 -22.7,0 -1.1,-1.9 -4.1,-1.9 -5.2,0 -4.9,8.5 -17.7,8.5 -22.7,0 -1,-1.9 -4,-1.9 -5.1,0 -4.9,8.5 -17.8,8.5 -22.7,0 -0.8,-1.5 -2.7,-1.9 -4.1,-1.1 -1.4,0.9 -1.9,2.7 -1,4.2 6.3,10.8 21.9,12.5 30.4,3.3 7.2,7.9 20.5,7.9 27.8,0 8.5,9.2 24.1,7.5 30.4,-3.3 0.8,-1.5 0.4,-3.3 -1,-4.2 z"
         style="fill:#d6d6d6" />
      <path
         id="path9"
         class="s4"
         d="m 639.7,1508 c -3.6,0 -7.1,1.6 -9.7,4.3 -9.5,-9.9 -24.3,-1.4 -24.1,12.3 0,11.3 10.3,18.2 19.3,24.4 4.9,3.5 4.7,3.5 9.6,0 9,-6.2 19.3,-13.1 19.3,-24.4 0,-9.2 -6.5,-16.6 -14.4,-16.6 z m -8.2,36 q -0.8,0.5 -1.5,1 c -8.2,-5.6 -18.2,-11.8 -18.1,-20.4 -0.1,-9.9 10.6,-14.9 15.4,-5.8 1,2.1 4.3,2.1 5.4,0 4.8,-9.1 15.5,-4.1 15.4,5.8 0,8.1 -8.5,13.8 -16.6,19.4 z"
         style="fill:#d6d6d6" />
      <path
         id="path10"
         class="s5"
         d="m 702.9,1651.9 h -0.3 v -29 c 0,-15.1 -12.9,-26.9 -27.9,-25.9 v -24.4 c 0,-12.7 -10.3,-23.1 -23.1,-23.1 h -43.2 c -12.8,0 -23.1,10.4 -23.1,23.1 v 24.4 c -15,-1 -27.9,10.8 -27.9,25.9 v 29 c -16.4,-0.1 -29.9,13.2 -29.9,29.6 v 43.5 c 0,1.7 1.4,3 3,3 h 199 c 1.6,0 3,-1.3 3,-3 v -43.5 c 0,-16.3 -13.3,-29.6 -29.6,-29.6 z m -111.6,-79.3 c 0,-9.4 7.6,-17.1 17.1,-17.1 h 43.2 c 9.5,0 17.1,7.7 17.1,17.1 v 24.2 h -77.4 z m -27.9,50.3 c 0,-11 9,-19.9 19.9,-19.9 h 93.4 c 10.9,0 19.9,8.9 19.9,19.9 v 28.7 H 563.4 Z m 163.1,99.1 h -193 v -40.5 c 0,-13 10.6,-23.5 23.6,-23.5 h 145.8 c 13,0 23.6,10.5 23.6,23.5 z"
         style="fill:#ffb948;fill-opacity:1" />
    </g>
  </g>
</svg>
